<svg version="1" xmlns="http://www.w3.org/2000/svg" width="853.333" height="853.333" viewBox="0 0 640.000000 640.000000"><path d="M0 320v320h640V0H0v320zm257.7-173.8c2.5 4 7.5 11.6 11 17 3.4 5.3 6.3 10 6.3 10.5 0 1-13.1 17.4-57.5 72.2-9.9 12.2-20.2 25-23 28.5-9.3 11.6-13.6 17.1-17 21.1-8.6 10.4-20.5 25.8-20.5 26.4 0 .9 6.8 10 8.6 11.6.6.5 3.9 4.6 7.2 9 3.4 4.4 8.9 11.4 12.2 15.5 3.3 4.1 9.4 11.8 13.5 17 12.5 15.9 17.1 21.6 42.3 53.1 13.4 16.7 26.6 33.1 29.3 36.4 2.9 3.5 4.8 6.7 4.5 7.7-.4 1.9-21.8 34.7-22.6 34.8-.3 0-2.4-2.4-4.7-5.3-13-16.4-34.1-43-38.3-48.2-10.1-12.5-17.6-21.9-19.5-24.4-1-1.4-4.4-5.8-7.5-9.6-7.4-9.3-22.5-28.3-33.6-42.4-4.9-6.3-10.5-13.3-12.4-15.6-1.9-2.3-8-9.9-13.5-17-5.5-7-11.7-14.8-13.8-17.3-2.5-2.9-3.5-4.8-2.9-5.6 4.4-5.6 15.3-19.3 19.2-24.1 2.7-3.3 11.2-14.1 19.1-24 7.8-9.9 17.5-22.1 21.4-27 3.9-5 8.9-11.3 11.1-14.1 2.1-2.8 8.9-11.3 14.9-18.8 12.9-16.1 37.7-47.2 47.8-60.1 8.5-10.8 11.8-14.5 12.9-14.5.4 0 2.9 3.3 5.5 7.2zm138.8-2c2.2 2.9 9.6 12.3 16.5 20.9 22.9 28.6 34.4 43.1 42 52.7 4.1 5.2 9.8 12.3 12.5 15.8 2.8 3.4 7.9 10 11.4 14.6 3.6 4.6 6.8 8.5 7.1 8.8.4.3 3.1 3.7 6.1 7.5 3 3.9 7.1 9.1 9.1 11.5 2 2.5 7.6 9.4 12.3 15.5 4.8 6 10.9 13.7 13.6 17 2.6 3.3 6.2 7.8 7.8 10.1l3.1 4.1-4.3 5.5c-2.3 3.1-8.5 10.9-13.7 17.4-5.3 6.6-11.8 14.7-14.5 18.2-7.5 9.5-11 13.9-18 22.7-7.8 9.7-19.5 24.4-27.5 34.5-11.3 14.2-21.1 26.5-25.5 32-19.3 24.1-29.9 37.6-35.5 44.9-3.6 4.6-7 8.6-7.5 8.8-.6.2-2.3-1.8-4-4.5-1.6-2.6-6.7-10.4-11.2-17.3-4.6-7-8.3-13-8.3-13.3 0-.5 3.2-4.4 20.3-25.5 3.5-4.3 9.3-11.6 21.2-26.5 14.1-17.7 29.1-36.2 30.1-37.1.6-.6 3.9-4.6 7.2-9 3.4-4.4 7.9-10.1 9.9-12.6 2.1-2.6 9.2-11.3 15.7-19.5 6.6-8.2 12.6-15.7 13.4-16.6 1.3-1.5 1-2.3-3-7-2.4-2.9-5.3-6.5-6.4-7.9-1-1.5-10.9-13.8-21.9-27.4-18.3-22.7-26.9-33.5-39.5-49.5-2.5-3.2-13.5-16.9-24.5-30.6-11-13.7-20.6-25.6-21.3-26.6-1.2-1.6-.9-2.5 1.8-7 8.7-14.1 19.5-29.8 20.5-29.8.6 0 2.9 2.4 5 5.2z"/></svg>